<svg width="28" height="28" viewBox="0 0 28 28" fill="none" xmlns="http://www.w3.org/2000/svg">
<rect width="28" height="28" fill="#1E1E1E"/>
<rect width="1440" height="1409" transform="translate(-132 -23)" fill="white"/>
<path d="M-132 -23H1308V57H-132V-23Z" fill="#003366"/>
<path d="M20.6758 5.89184C21.3125 5.89184 21.935 5.71906 22.4644 5.39536C22.9938 5.07166 23.4065 4.61157 23.6502 4.07327C23.8938 3.53498 23.9576 2.94265 23.8334 2.3712C23.7091 1.79975 23.4025 1.27483 22.9523 0.862841C22.502 0.450846 21.9284 0.170275 21.3039 0.0566063C20.6794 -0.0570626 20.032 0.00127641 19.4438 0.224246C18.8555 0.447216 18.3527 0.824801 17.9989 1.30925C17.6452 1.79371 17.4563 2.36327 17.4563 2.94592C17.4563 3.72723 17.7955 4.47653 18.3993 5.029C19.0031 5.58147 19.8219 5.89184 20.6758 5.89184ZM15.3637 22.6836C14.7185 23.4566 13.8742 24.0714 12.9061 24.4732C11.938 24.875 10.8763 25.0512 9.81569 24.9861C8.75508 24.921 7.72857 24.6167 6.82778 24.1002C5.92699 23.5838 5.17996 22.8713 4.65334 22.0263C4.12672 21.1814 3.8369 20.2303 3.80976 19.2579C3.78261 18.2856 4.01898 17.3222 4.49777 16.4537C4.97656 15.5853 5.68287 14.8388 6.55366 14.281C7.42445 13.7231 8.43264 13.3712 9.48825 13.2566C9.91517 13.2137 10.306 13.0173 10.5746 12.7106C10.8433 12.404 10.9679 12.0123 10.9209 11.6216C10.8739 11.231 10.6593 10.8734 10.3242 10.6276C9.98913 10.3817 9.56103 10.2677 9.13411 10.3107C6.57257 10.4416 4.17275 11.4982 2.4626 13.2481C0.752444 14.9981 -0.127963 17.298 0.0150565 19.6419C0.158076 21.9858 1.31281 24.1818 3.22522 25.7466C5.13763 27.3115 7.65108 28.1171 10.2126 27.9862C11.712 27.9862 13.1908 27.6668 14.5319 27.0532C15.8731 26.4396 17.0396 25.5487 17.9393 24.4511C18.1954 24.1386 18.3054 23.7458 18.245 23.359C18.1847 22.9723 17.9589 22.6234 17.6173 22.389C17.2758 22.1546 16.8465 22.0539 16.4238 22.1092C16.0012 22.1644 15.6199 22.371 15.3637 22.6836ZM26.3098 25.0403H24.7001V17.6755C24.7001 17.2849 24.5305 16.9102 24.2286 16.634C23.9267 16.3577 23.5173 16.2026 23.0904 16.2026H15.734L18.4544 9.33856C18.4544 9.33856 18.4544 9.23545 18.4544 9.17654V8.88194C18.4623 8.79372 18.4623 8.70504 18.4544 8.61681C18.4635 8.52371 18.4635 8.43005 18.4544 8.33695C18.4124 8.25054 18.364 8.16688 18.3095 8.08655C18.2612 8.0062 18.2016 7.93194 18.1324 7.8656C18.0633 7.79067 17.9819 7.72607 17.891 7.67412C17.891 7.67412 17.891 7.58574 17.7622 7.55628L10.5507 3.75605H10.3575C10.2588 3.71787 10.1564 3.68828 10.0516 3.66767H9.40776C9.29592 3.68882 9.18766 3.7235 9.08582 3.77078H8.90875L4.57861 6.08332C4.27086 6.24285 4.02909 6.49069 3.89069 6.78853C3.75228 7.08638 3.72493 7.41764 3.81287 7.73113C3.90081 8.04462 4.09914 8.32288 4.37721 8.52291C4.65527 8.72293 4.9976 8.83358 5.35127 8.83776C5.64413 8.84482 5.93355 8.77861 6.18832 8.64627L9.77799 6.73142L14.9935 9.50059L11.9511 17.1747C11.9433 17.2531 11.9433 17.332 11.9511 17.4104C11.936 17.4982 11.936 17.5877 11.9511 17.6755C11.9808 17.8644 12.0238 18.0514 12.0799 18.2352L12.257 18.4562C12.3008 18.5434 12.3607 18.6231 12.434 18.6919C12.5028 18.7444 12.5785 18.789 12.6594 18.8244C12.7552 18.8918 12.8576 18.951 12.9652 19.0012C13.1407 19.0594 13.3259 19.0893 13.5125 19.0896H21.5611V26.4543C21.5611 26.845 21.7307 27.2196 22.0326 27.4959C22.3345 27.7721 22.7439 27.9273 23.1708 27.9273H26.3903C26.8172 27.9273 27.2266 27.7721 27.5285 27.4959C27.8304 27.2196 28 26.845 28 26.4543C28 26.0637 27.8304 25.689 27.5285 25.4128C27.2266 25.1366 26.8172 24.9814 26.3903 24.9814L26.3098 25.0403Z" fill="#E0E0E0"/>
</svg>
